<?xml version="1.0" standalone="no"?>
<!DOCTYPE svg PUBLIC "-//W3C//DTD SVG 20010904//EN"
 "http://www.w3.org/TR/2001/REC-SVG-20010904/DTD/svg10.dtd">
<svg version="1.0" xmlns="http://www.w3.org/2000/svg"
 width="281.000000pt" height="304.000000pt" viewBox="0 0 281.000000 304.000000"
 preserveAspectRatio="xMidYMid meet">

<g transform="translate(0.000000,304.000000) scale(0.100000,-0.100000)"
fill="#000000" stroke="none">
<path d="M1817 2323 c-43 -7 -50 -32 -37 -131 9 -71 16 -92 38 -114 58 -61
163 -15 161 71 -1 36 -1 36 -11 9 -7 -21 -17 -28 -36 -29 -15 0 -36 -2 -47 -4
-11 -2 -34 -6 -52 -10 -31 -6 -32 -5 -38 38 -4 24 -5 56 -3 73 3 28 6 29 71
38 79 11 91 4 91 -51 -1 -21 1 -30 3 -20 3 9 9 15 14 12 16 -11 9 39 -10 72
-18 29 -30 35 -101 47 -8 2 -27 1 -43 -1z m103 -228 c-13 -16 -80 -21 -80 -6
0 5 9 7 19 4 11 -3 28 0 38 6 26 15 37 13 23 -4z"/>
<path d="M500 2285 c0 -6 12 -28 26 -49 l26 -38 29 28 c35 34 38 64 7 65 -74
4 -88 3 -88 -6z"/>
<path d="M1890 2210 c0 -5 7 -7 15 -4 8 4 15 8 15 10 0 2 -7 4 -15 4 -8 0 -15
-4 -15 -10z"/>
<path d="M1800 2204 c0 -16 23 -44 35 -44 16 0 18 9 9 34 -6 15 -44 24 -44 10z"/>
<path d="M1895 2191 c-3 -5 -1 -12 5 -16 12 -7 30 2 30 16 0 12 -27 12 -35 0z"/>
<path d="M679 1881 c-22 -18 -24 -28 -29 -146 -5 -118 -7 -129 -27 -143 -30
-19 -33 -96 -5 -111 30 -16 70 -2 81 30 l10 29 100 0 c65 0 102 -4 107 -12 4
-6 13 -39 20 -72 12 -56 11 -63 -7 -82 -10 -11 -19 -25 -19 -30 0 -21 -56 -43
-96 -38 -64 9 -72 13 -53 27 8 7 23 24 33 39 l17 26 -38 26 c-28 20 -50 26
-88 26 -71 0 -89 -7 -109 -42 -18 -29 -18 -30 9 -58 21 -22 29 -42 32 -82 3
-29 11 -67 19 -85 18 -41 18 -82 -1 -89 -10 -4 -13 -14 -9 -30 4 -15 2 -24 -5
-24 -15 0 -14 -37 2 -43 8 -2 12 -25 12 -68 0 -61 1 -64 25 -66 35 -3 70 6 70
17 0 6 -6 10 -13 10 -20 0 -51 37 -38 45 6 3 11 14 11 24 0 24 25 45 42 34 8
-5 13 -30 13 -68 l0 -60 49 0 c31 0 51 5 53 13 3 6 -2 12 -10 12 -21 0 -58 35
-47 46 4 5 10 20 12 34 2 20 9 26 35 28 29 3 31 1 38 -38 4 -22 18 -55 33 -71
25 -30 28 -31 93 -27 55 3 73 8 94 28 14 13 25 29 25 37 0 10 22 13 88 13 l89
0 24 -37 c24 -37 25 -38 95 -41 69 -3 72 -2 98 28 14 18 26 38 26 46 0 25 39
16 46 -11 10 -42 59 -75 109 -75 62 0 92 14 116 55 l21 35 104 0 104 0 14 -34
c19 -45 42 -56 119 -56 77 0 100 19 118 95 11 47 13 50 43 50 27 0 31 4 34 28
2 16 0 36 -3 45 -4 10 -8 54 -9 99 -3 95 -14 117 -83 164 -67 44 -93 74 -93
104 0 23 4 25 40 25 36 0 40 -3 40 -25 0 -13 -8 -29 -17 -34 -15 -9 -14 -10 9
-11 21 0 29 6 34 25 12 47 0 57 -63 54 l-57 -3 -54 135 c-30 74 -61 142 -69
152 -12 12 -31 17 -70 17 l-53 0 0 53 c0 29 -5 58 -12 65 -9 9 -158 12 -609
12 -572 0 -598 -1 -620 -19z m536 -163 c0 -64 -3 -119 -6 -122 -2 -3 -120 -6
-262 -8 l-257 -3 0 121 c0 66 3 124 7 127 4 4 122 6 262 5 l256 -3 0 -117z
m819 -125 c-1 -18 3 -31 8 -30 6 1 24 -31 41 -71 24 -55 28 -75 19 -84 -9 -9
-18 -9 -37 0 -14 7 -46 12 -70 12 l-45 0 0 106 0 105 43 -3 c40 -3 42 -4 41
-35z m-841 -318 c-2 -55 -3 -130 -3 -167 l0 -68 -190 0 -190 0 0 34 c0 18 -7
52 -15 75 l-14 41 59 0 60 0 2 38 c0 20 1 43 1 50 -1 9 22 12 82 12 l83 0 7
45 6 46 57 -3 57 -3 -2 -100z m67 -118 c0 -47 -12 -73 -29 -63 -15 10 -14 103
2 109 21 7 27 -3 27 -46z m974 -123 c32 -31 14 -114 -25 -114 -11 0 -17 4 -14
10 3 6 -1 7 -9 4 -9 -3 -16 -2 -17 2 -9 72 0 112 22 98 5 -3 9 0 9 5 0 16 16
13 34 -5z m-734 -68 c0 -21 -30 -48 -49 -44 -25 5 -24 33 1 46 32 15 48 14 48
-2z"/>
<path d="M2193 994 c-8 -21 13 -42 28 -27 13 13 5 43 -11 43 -6 0 -13 -7 -17
-16z"/>
<path d="M2321 856 c-22 -12 -21 -13 20 -12 24 1 44 6 44 11 0 15 -37 16 -64
1z"/>
<path d="M1032 698 c-15 -15 -15 -25 1 -31 7 -3 12 4 12 19 0 13 0 24 0 24 -1
0 -6 -5 -13 -12z"/>
<path d="M1110 695 c0 -8 4 -15 10 -15 5 0 7 7 4 15 -4 8 -8 15 -10 15 -2 0
-4 -7 -4 -15z"/>
<path d="M1146 695 c-3 -9 0 -15 9 -15 16 0 20 16 6 24 -5 3 -11 -1 -15 -9z"/>
<path d="M1166 643 c-6 -15 -16 -23 -32 -23 -13 0 -24 3 -24 8 0 4 -20 7 -44
7 -28 0 -42 -4 -39 -11 2 -7 -7 -9 -25 -6 -21 3 -31 -1 -36 -14 -7 -17 18 -54
37 -54 5 0 20 -11 33 -25 32 -35 57 -31 105 13 37 36 40 42 36 83 -3 36 -5 40
-11 22z"/>
<path d="M2660 565 c0 -15 -4 -24 -10 -20 -6 4 -10 -12 -10 -39 0 -25 -4 -46
-10 -46 -5 0 -10 -18 -10 -40 0 -36 -2 -40 -25 -40 -18 0 -25 -5 -25 -20 0
-14 -7 -20 -21 -20 -12 0 -23 -8 -26 -19 -3 -11 -11 -22 -19 -25 -8 -3 -14
-12 -14 -20 0 -8 -10 -16 -22 -18 -15 -2 -24 -11 -26 -25 -2 -16 -12 -23 -35
-26 -18 -3 -6 -4 25 -3 97 2 49 -13 -67 -21 -100 -7 -105 -8 -55 -14 l55 -6
-53 -1 c-78 -3 -55 -19 34 -24 112 -7 228 6 269 32 19 12 34 24 34 28 -3 20 2
33 11 27 15 -9 39 95 35 150 -3 28 -8 85 -11 128 -4 42 -11 80 -15 83 -5 3 -9
-7 -9 -21z"/>
<path d="M2691 483 c0 -10 4 -27 9 -38 7 -16 9 -13 9 18 1 20 -3 37 -9 37 -5
0 -10 -8 -9 -17z"/>
<path d="M2602 440 c0 -14 2 -19 5 -12 2 6 2 18 0 25 -3 6 -5 1 -5 -13z"/>
</g>
</svg>
