<?xml version="1.0" standalone="no"?>
<!DOCTYPE svg PUBLIC "-//W3C//DTD SVG 20010904//EN"
 "http://www.w3.org/TR/2001/REC-SVG-20010904/DTD/svg10.dtd">
<svg version="1.0" xmlns="http://www.w3.org/2000/svg"
 width="313.000000pt" height="340.000000pt" viewBox="0 0 313.000000 340.000000"
 preserveAspectRatio="xMidYMid meet">

<g transform="translate(0.000000,340.000000) scale(0.100000,-0.100000)"
fill="#000000" stroke="none">
<path d="M915 2345 c-20 -19 -25 -34 -25 -73 0 -109 23 -143 45 -66 l11 39 88
5 c90 5 125 22 71 36 -14 3 -32 19 -40 35 -19 35 -43 49 -90 49 -25 0 -43 -8
-60 -25z"/>
<path d="M865 2085 c-29 -34 -39 -59 -48 -111 -11 -64 -11 -67 11 -85 13 -10
39 -21 58 -25 38 -7 40 -14 23 -93 -8 -40 -7 -61 7 -111 9 -33 20 -63 24 -65
4 -2 32 -7 61 -11 l54 -6 -4 132 c-2 108 0 133 12 143 8 7 17 35 19 64 5 48 2
55 -24 80 -17 15 -36 40 -44 55 -12 23 -87 78 -107 78 -3 0 -22 -20 -42 -45z"/>
<path d="M826 1635 c-8 -22 -3 -28 19 -23 14 3 14 5 2 22 -13 18 -14 18 -21 1z"/>
<path d="M1320 1630 c0 -13 7 -20 20 -20 13 0 20 7 20 20 0 13 -7 20 -20 20
-13 0 -20 -7 -20 -20z"/>
<path d="M2025 1580 c-3 -5 1 -10 9 -10 9 0 16 5 16 10 0 6 -4 10 -9 10 -6 0
-13 -4 -16 -10z"/>
<path d="M2071 1583 c-1 -17 16 -25 25 -12 4 7 3 9 -4 5 -5 -3 -13 0 -15 6 -4
9 -6 10 -6 1z"/>
<path d="M806 1543 c-3 -15 -8 -56 -11 -90 -7 -63 -7 -63 19 -63 15 0 30 -8
36 -19 15 -29 12 -108 -6 -176 -30 -113 -34 -175 -22 -307 l12 -128 148 0
c160 0 178 8 94 43 -43 18 -43 18 -50 79 -12 115 -7 220 14 286 11 36 20 92
20 128 0 35 4 64 9 64 9 0 36 158 28 166 -5 6 -131 22 -136 18 -3 -2 6 -26 19
-53 23 -49 21 -75 -4 -65 -8 3 -31 34 -52 70 -28 49 -43 64 -60 64 -12 0 -29
3 -37 6 -11 4 -17 -3 -21 -23z m124 -546 c0 -18 7 -59 16 -92 28 -110 29 -114
6 -108 -45 11 -52 32 -45 141 3 56 10 99 14 96 5 -3 9 -20 9 -37z"/>
<path d="M2125 1541 c-5 -23 -10 -28 -23 -24 -9 4 -20 11 -24 17 -4 6 -10 7
-15 3 -4 -5 -1 -12 7 -18 13 -7 13 -10 1 -18 -8 -5 -9 -11 -3 -15 6 -3 12 -1
14 4 2 6 19 -5 37 -24 19 -20 31 -39 27 -43 -4 -5 -16 3 -27 16 -21 26 -53 23
-42 -4 5 -14 8 -14 15 -3 8 11 10 11 15 0 3 -8 19 -28 36 -45 17 -18 31 -41
32 -51 0 -11 5 -21 10 -23 6 -2 11 9 10 24 0 20 6 29 25 34 27 8 22 10 -25 12
-25 2 -30 6 -30 29 -1 16 -11 34 -25 46 -23 18 -23 22 -11 62 7 23 10 44 8 47
-3 2 -8 -9 -12 -26z"/>
<path d="M2025 1541 c-3 -5 0 -13 6 -17 7 -4 9 -3 5 4 -3 5 0 13 6 15 9 4 10
6 1 6 -6 1 -14 -3 -18 -8z"/>
<path d="M2171 1496 c-13 -16 -4 -49 11 -40 6 4 5 10 -3 15 -11 7 -10 9 3 9
22 0 32 16 14 23 -8 3 -19 0 -25 -7z"/>
<path d="M1971 1474 c0 -11 3 -14 6 -6 3 7 2 16 -1 19 -3 4 -6 -2 -5 -13z"/>
<path d="M2260 1471 c0 -6 4 -13 10 -16 6 -3 7 1 4 9 -7 18 -14 21 -14 7z"/>
<path d="M2016 1434 c-3 -8 -2 -13 3 -10 13 8 34 -21 25 -35 -4 -8 -3 -9 4 -5
17 10 15 33 -4 40 -8 3 -12 10 -9 16 3 5 2 10 -3 10 -6 0 -13 -7 -16 -16z"/>
<path d="M2229 1443 c-1 -5 -1 -11 0 -15 0 -5 -6 -8 -14 -8 -8 0 -15 -5 -15
-10 0 -17 33 5 36 24 1 9 0 16 -2 16 -2 0 -5 -3 -5 -7z"/>
<path d="M2250 1418 c0 -4 7 -8 15 -8 8 0 15 4 15 8 0 5 -7 9 -15 9 -8 0 -15
-4 -15 -9z"/>
<path d="M2080 1385 c-10 -13 -9 -15 9 -15 11 0 21 4 21 9 0 18 -18 21 -30 6z"/>
<path d="M1987 1384 c-14 -15 -6 -22 28 -26 19 -2 35 0 35 4 0 4 -11 8 -24 8
-13 0 -26 5 -28 11 -2 5 -7 7 -11 3z"/>
<path d="M2299 1372 c-13 -15 -12 -16 4 -3 16 12 17 10 16 -30 -1 -37 -2 -40
-9 -19 -6 20 -7 17 -7 -17 2 -57 18 -39 25 25 5 54 -8 72 -29 44z"/>
<path d="M1947 1373 c-4 -3 -4 -16 -1 -29 5 -19 1 -24 -23 -29 -63 -13 -78
-21 -81 -43 -5 -33 15 -52 55 -52 23 0 33 -4 30 -12 -2 -7 -16 -12 -31 -10
-29 3 -32 -5 -12 -33 13 -18 15 -18 41 -1 15 10 29 15 32 12 9 -9 -28 -46 -44
-46 -24 0 -9 -24 21 -35 25 -8 31 -6 52 20 13 16 26 26 29 23 13 -12 -5 -45
-30 -56 -14 -6 -25 -16 -25 -21 0 -15 65 -24 88 -12 19 10 52 68 52 91 0 7 16
30 35 51 19 22 35 47 35 57 0 30 -24 70 -48 82 -33 15 -109 22 -116 11 -9 -14
-48 0 -42 15 6 15 -7 27 -17 17z m68 -83 c-5 -8 -11 -8 -17 -2 -6 6 -7 16 -3
22 5 8 11 8 17 2 6 -6 7 -16 3 -22z"/>
<path d="M2110 1350 c0 -5 7 -7 15 -4 8 4 15 8 15 10 0 2 -7 4 -15 4 -8 0 -15
-4 -15 -10z"/>
<path d="M2235 1320 c-18 -8 -18 -9 -2 -11 41 -4 47 -3 48 6 0 13 -21 16 -46
5z"/>
<path d="M2208 1293 c6 -2 18 -2 25 0 6 3 1 5 -13 5 -14 0 -19 -2 -12 -5z"/>
<path d="M2184 1257 c1 -19 5 -22 30 -19 l29 5 -24 18 c-31 24 -37 24 -35 -4z"/>
<path d="M2260 1260 c0 -5 7 -10 16 -10 8 0 12 5 9 10 -3 6 -10 10 -16 10 -5
0 -9 -4 -9 -10z"/>
<path d="M3012 1029 c-2 -43 -4 -47 -32 -52 -21 -5 -30 -12 -30 -27 0 -11 -4
-20 -10 -20 -5 0 -10 -11 -10 -25 0 -14 -4 -25 -10 -25 -5 0 -10 -9 -10 -19 0
-10 -7 -21 -15 -25 -8 -3 -15 -15 -15 -26 0 -13 -7 -20 -20 -20 -17 0 -20 -7
-20 -50 l0 -50 -35 0 c-28 0 -35 -4 -35 -19 0 -11 -4 -23 -10 -26 -5 -3 -10
-15 -10 -26 0 -14 -7 -19 -25 -19 -23 0 -25 -4 -25 -44 0 -39 -3 -45 -22 -48
-15 -2 -24 -11 -26 -25 -3 -19 -10 -23 -38 -23 -27 0 -34 -4 -34 -20 0 -13
-10 -24 -25 -30 -14 -5 -25 -16 -25 -25 0 -8 -4 -15 -10 -15 -5 0 -10 -11 -10
-24 0 -21 -6 -25 -32 -28 -32 -3 -33 -4 -31 -45 1 -37 -1 -43 -18 -43 -14 0
-19 -7 -19 -25 0 -22 -4 -25 -40 -25 -36 0 -40 -2 -40 -26 l0 -25 258 3 257 3
55 30 c47 25 60 39 85 90 37 74 42 155 35 545 -3 151 -7 254 -8 229z"/>
<path d="M2256 813 c4 -15 0 -23 -14 -27 -18 -6 -36 -38 -33 -59 1 -4 -15 -5
-34 -1 -21 4 -35 2 -35 -4 0 -5 12 -12 28 -14 45 -6 282 11 361 27 126 25 122
47 -10 69 -46 8 -119 17 -161 20 -69 5 -78 4 -78 -11 0 -15 -2 -14 -15 3 -14
18 -14 18 -9 -3z"/>
<path d="M2108 713 c7 -3 16 -2 19 1 4 3 -2 6 -13 5 -11 0 -14 -3 -6 -6z"/>
</g>
</svg>
