<?xml version="1.0" standalone="no"?>
<!DOCTYPE svg PUBLIC "-//W3C//DTD SVG 20010904//EN"
 "http://www.w3.org/TR/2001/REC-SVG-20010904/DTD/svg10.dtd">
<svg version="1.0" xmlns="http://www.w3.org/2000/svg"
 width="381.000000pt" height="398.000000pt" viewBox="0 0 381.000000 398.000000"
 preserveAspectRatio="xMidYMid meet">

<g transform="translate(0.000000,398.000000) scale(0.100000,-0.100000)"
fill="#000000" stroke="none">
<path d="M2938 3973 l-78 -4 0 -84 c0 -47 -4 -85 -9 -85 -5 0 -11 12 -13 28
-2 15 -4 -33 -4 -107 -1 -113 -3 -135 -17 -143 -13 -7 -17 -23 -17 -63 0 -57
-16 -76 -22 -27 -2 15 -3 -9 -3 -52 0 -54 -4 -81 -13 -84 -7 -2 -12 -24 -12
-57 0 -30 -4 -57 -10 -60 -6 -4 -10 7 -10 26 0 45 -9 31 -14 -22 -2 -24 -4
-47 -5 -51 -1 -5 -11 -8 -23 -8 -42 -1 31 -26 93 -33 31 -3 65 -9 75 -15 11
-5 45 -21 76 -36 71 -35 151 -117 185 -192 37 -82 43 -207 14 -300 -35 -115
-132 -220 -238 -260 -26 -10 -49 -18 -51 -19 -1 -1 11 -32 28 -69 52 -113 79
-215 95 -356 l6 -55 -96 3 c-64 3 -95 0 -95 -7 0 -7 33 -11 95 -11 l95 0 0
-29 c0 -36 -21 -41 -171 -41 -155 0 -139 -19 19 -22 l127 -3 0 -30 0 -30 -145
-6 c-80 -4 -177 -7 -216 -8 -64 -1 -72 -3 -84 -25 -7 -15 -9 -32 -5 -43 7 -14
10 -11 14 17 6 33 8 35 51 38 25 2 123 1 218 -3 l173 -7 -3 -27 c-3 -25 -5
-26 -88 -32 -65 -5 -55 -6 43 -3 l127 3 0 -320 0 -319 -77 -1 c-43 0 -217 -3
-388 -5 -170 -3 -571 -6 -890 -7 l-580 -2 -6 -52 c-16 -128 -140 -243 -279
-260 -62 -7 -159 11 -208 40 -77 44 -152 152 -152 219 0 14 -6 29 -12 31 -10
4 -10 6 0 6 19 1 16 91 -3 91 -8 0 -15 7 -15 15 0 8 6 15 14 15 8 0 17 7 20
16 10 25 1 27 -19 4 -16 -18 -31 -20 -155 -20 l-137 0 -7 -38 c-3 -20 -6 -58
-6 -84 0 -27 -4 -48 -10 -48 -6 0 -10 42 -10 107 0 203 -8 97 -13 -177 -6
-303 3 -490 28 -561 20 -58 67 -114 115 -139 96 -49 121 -50 1682 -50 1531 0
1552 1 1635 43 45 24 95 81 115 133 12 28 23 96 29 164 6 70 9 752 7 1740 l-3
1625 -23 47 c-19 41 -71 101 -113 133 -17 13 -76 38 -103 43 -28 6 -432 9
-528 5z m5 -630 c-7 -2 -21 -2 -30 0 -10 3 -4 5 12 5 17 0 24 -2 18 -5z m382
-975 c48 -22 23 -108 -32 -108 -20 0 -53 38 -53 60 0 21 33 60 50 60 5 0 21
-5 35 -12z m-2942 -1419 c4 -3 1 -12 -8 -19 -13 -11 -15 -9 -15 15 0 16 3 24
8 19 4 -5 11 -11 15 -15z m27 -29 c0 -5 -4 -10 -10 -10 -5 0 -10 5 -10 10 0 6
5 10 10 10 6 0 10 -4 10 -10z m1015 -40 c-6 -20 -1 -20 202 -22 114 -1 330 -2
480 -2 304 0 306 -1 150 -58 -257 -94 -557 -83 -794 29 -54 26 -57 30 -47 57
9 23 16 20 9 -4z m-1092 -27 c-29 -4 -33 -8 -33 -34 0 -28 -1 -29 -50 -29 -49
0 -50 1 -50 29 0 29 2 30 53 34 28 2 66 3 82 4 29 0 29 0 -2 -4z m2493 -223
c5 0 21 -10 33 -21 18 -17 20 -23 9 -30 -9 -6 -7 -9 10 -9 18 0 22 -5 22 -35
0 -24 -6 -37 -21 -45 -11 -7 -18 -17 -16 -25 4 -9 -1 -11 -16 -8 -17 4 -19 2
-8 -5 11 -8 10 -12 -7 -21 -11 -6 -31 -11 -44 -11 -28 0 -84 48 -97 83 -11 28
-4 70 10 61 5 -3 6 2 3 10 -8 20 64 68 91 61 11 -2 25 -5 31 -5z"/>
<path d="M2721 534 c0 -11 3 -14 6 -6 3 7 2 16 -1 19 -3 4 -6 -2 -5 -13z"/>
<path d="M2690 531 c0 -6 4 -13 10 -16 6 -3 7 1 4 9 -7 18 -14 21 -14 7z"/>
<path d="M2806 2885 c-16 -25 -16 -27 13 -55 16 -16 31 -35 34 -42 2 -7 4 17
5 55 1 59 -1 67 -17 67 -10 0 -26 -11 -35 -25z"/>
<path d="M2855 2677 c-10 -127 -8 -130 50 -111 54 19 70 42 53 78 -6 14 -15
26 -19 26 -14 0 -51 43 -64 74 -12 28 -13 23 -20 -67z"/>
<path d="M1831 2741 c-12 -12 -22 -31 -22 -43 -1 -13 -2 -29 -3 -37 0 -7 -20
-19 -44 -26 -23 -7 -53 -20 -66 -28 -22 -15 -25 -14 -47 9 -22 24 -71 32 -95
16 -48 -31 -35 -103 22 -124 29 -10 34 -17 34 -44 0 -36 41 -94 68 -95 14 0
13 -2 -3 -9 -18 -8 -17 -9 8 -9 15 -1 30 -8 33 -16 4 -8 10 -12 16 -9 5 3 7
12 4 20 -3 8 0 14 8 14 22 0 25 -11 10 -45 -16 -40 -18 -65 -4 -65 6 0 10 11
10 25 0 14 11 43 25 65 22 35 30 40 63 39 74 -1 76 -8 16 -72 -31 -32 -53 -61
-50 -64 3 -3 31 19 62 50 66 65 82 64 109 -8 l18 -45 91 0 90 0 -22 22 c-17
17 -37 23 -87 26 -59 4 -67 7 -76 29 -12 32 -13 30 25 43 53 17 71 45 67 103
-2 29 -43 42 -79 23 -40 -21 -45 -20 -32 3 17 34 11 69 -19 103 -21 25 -26 38
-20 53 21 54 -3 101 -57 111 -24 5 -37 1 -53 -15z"/>
<path d="M986 2192 c-4 -15 -21 -114 -40 -219 l-33 -193 33 0 c27 0 34 4 34
20 0 19 13 96 47 268 13 67 19 82 32 78 9 -3 71 -14 138 -26 67 -11 129 -23
137 -26 10 -4 17 2 22 20 8 35 1 43 -53 50 -46 7 -245 42 -290 51 -17 4 -23
-1 -27 -23z"/>
<path d="M1428 2043 c-29 -5 -31 -10 -61 -185 l-14 -78 38 0 c31 0 38 4 43 26
9 36 29 54 47 43 11 -7 10 -9 -5 -9 -15 0 -16 -2 -6 -15 11 -13 10 -18 -5 -29
-15 -11 -3 -14 90 -20 59 -4 110 -4 113 -1 3 3 -3 12 -14 21 -15 12 -16 16 -5
21 38 15 62 53 59 91 -2 31 -9 40 -37 54 -19 9 -37 22 -41 28 -4 6 -13 11 -21
10 -29 -4 -39 1 -39 20 0 11 -4 20 -10 20 -5 0 -10 -11 -10 -24 0 -18 -7 -25
-27 -28 -16 -3 -37 -9 -47 -13 -18 -8 -19 -5 -12 33 3 23 3 41 -1 41 -5 -1
-20 -4 -35 -6z m72 -123 c0 -5 -7 -7 -15 -4 -8 4 -15 8 -15 10 0 2 7 4 15 4 8
0 15 -4 15 -10z m93 -57 c-7 -2 -19 -2 -25 0 -7 3 -2 5 12 5 14 0 19 -2 13 -5z
m-43 -33 c0 -5 -4 -10 -9 -10 -6 0 -13 5 -16 10 -3 6 1 10 9 10 9 0 16 -4 16
-10z"/>
<path d="M2157 1764 c-11 -11 -8 -52 3 -56 6 -2 14 -32 18 -68 l7 -65 75 0 75
0 7 59 c4 32 13 64 19 72 6 7 9 23 7 36 -3 22 -7 23 -104 26 -55 1 -103 0
-107 -4z"/>
<path d="M2102 1234 c-28 -19 -28 -34 -2 -34 26 0 80 27 80 40 0 16 -53 12
-78 -6z"/>
<path d="M2250 1177 c0 -13 11 -33 23 -46 21 -19 25 -20 37 -6 19 23 -5 75
-36 75 -18 0 -24 -5 -24 -23z"/>
<path d="M545 1180 c-3 -5 -1 -10 4 -10 6 0 11 5 11 10 0 6 -2 10 -4 10 -3 0
-8 -4 -11 -10z"/>
<path d="M2014 1115 c-7 -30 2 -59 16 -50 13 8 13 75 0 75 -5 0 -12 -11 -16
-25z"/>
<path d="M2106 1124 c-21 -21 -20 -46 4 -71 29 -32 72 -18 81 25 5 26 2 35
-14 47 -28 19 -52 19 -71 -1z"/>
<path d="M778 1073 c-2 -15 -8 -28 -15 -28 -6 0 -15 -3 -19 -7 -4 -5 0 -8 9
-8 10 0 17 -5 17 -11 0 -6 -7 -9 -15 -5 -9 3 -15 0 -15 -9 0 -8 7 -15 15 -15
8 0 15 -5 15 -11 0 -5 -4 -8 -9 -5 -4 3 -18 -5 -30 -18 l-21 -23 25 -11 c35
-16 31 -24 -20 -47 -25 -11 -40 -22 -33 -24 7 -2 19 -10 27 -18 11 -12 10 -13
-11 -8 -13 3 -35 2 -48 -4 -14 -5 -20 -10 -15 -10 6 -1 11 -27 13 -58 3 -61
11 -72 72 -99 48 -21 108 -22 151 -1 31 16 38 25 48 72 8 34 9 61 3 72 -5 10
-7 23 -5 30 5 14 -45 120 -70 148 -9 10 -15 25 -13 32 3 6 1 13 -3 15 -5 2
-18 20 -29 41 l-20 39 -4 -29z m-18 -133 c0 -5 -7 -10 -15 -10 -8 0 -15 5 -15
10 0 6 7 10 15 10 8 0 15 -4 15 -10z"/>
<path d="M2253 1028 c-24 -12 -37 -48 -23 -62 14 -14 64 25 68 53 4 23 -10 26
-45 9z"/>
<path d="M2073 986 c5 -15 66 -50 74 -42 3 3 -2 14 -11 25 -19 21 -69 35 -63
17z"/>
<path d="M655 890 c-3 -6 1 -7 9 -4 18 7 21 14 7 14 -6 0 -13 -4 -16 -10z"/>
</g>
</svg>
